<svg xmlns="http://www.w3.org/2000/svg" viewBox="0 0 960 600" width="960" height="600" role="img" aria-labelledby="title desc">
  <title id="title">OpenHire workforce multiplier</title>
  <desc id="desc">A flow diagram showing one business goal routed to multiple digital employees and consolidated into an audited decision package.</desc>
  <defs>
    <linearGradient id="bg" x1="0" y1="0" x2="1" y2="1">
      <stop offset="0%" stop-color="#f8fafc"/>
      <stop offset="100%" stop-color="#eef2ff"/>
    </linearGradient>
    <linearGradient id="hub" x1="0" y1="0" x2="1" y2="1">
      <stop offset="0%" stop-color="#1d4ed8"/>
      <stop offset="100%" stop-color="#0f766e"/>
    </linearGradient>
    <filter id="shadow" x="-18%" y="-20%" width="136%" height="150%">
      <feDropShadow dx="0" dy="10" stdDeviation="10" flood-color="#0f172a" flood-opacity=".12"/>
    </filter>
    <marker id="arrow" viewBox="0 0 10 10" refX="9" refY="5" markerWidth="8" markerHeight="8" orient="auto">
      <path d="M0,1 L9,5 L0,9 Z" fill="#2563eb"/>
    </marker>
    <marker id="arrowTeal" viewBox="0 0 10 10" refX="9" refY="5" markerWidth="8" markerHeight="8" orient="auto">
      <path d="M0,1 L9,5 L0,9 Z" fill="#0f766e"/>
    </marker>
  </defs>
  <style>
    @keyframes dash { to { stroke-dashoffset: -32; } }
    @keyframes float { 0%,100% { transform: translateY(0); } 50% { transform: translateY(-5px); } }
    @keyframes pulse { 0%,100% { opacity: .78; } 50% { opacity: 1; } }
    .flow { stroke-dasharray: 11 9; animation: dash 1.9s linear infinite; }
    .employee { animation: float 3s ease-in-out infinite; transform-origin: center; }
    .pulse { animation: pulse 2.3s ease-in-out infinite; }
    .label { font-family: Inter, -apple-system, BlinkMacSystemFont, "Segoe UI", sans-serif; }
  </style>
  <rect width="960" height="600" rx="22" fill="url(#bg)"/>
  <rect x="1" y="1" width="958" height="598" rx="22" fill="none" stroke="#c7d2fe" stroke-width="2"/>
  <text class="label" x="480" y="48" text-anchor="middle" font-size="18" font-weight="800" letter-spacing="5" fill="#4338ca">WORKFORCE MULTIPLIER</text>
  <text class="label" x="480" y="84" text-anchor="middle" font-size="30" font-weight="900" fill="#0f172a">One goal, parallel work</text>

  <rect x="54" y="236" width="190" height="112" rx="18" fill="#ffffff" stroke="#cbd5e1" stroke-width="1.6" filter="url(#shadow)"/>
  <text class="label" x="149" y="266" text-anchor="middle" font-size="14" font-weight="800" fill="#64748b">CEO / ADMIN GOAL</text>
  <text class="label" x="149" y="296" text-anchor="middle" font-size="22" font-weight="900" fill="#111827">20% growth</text>
  <text class="label" x="149" y="323" text-anchor="middle" font-size="16" fill="#475569">control risk</text>

  <path class="flow" d="M244 292 H344" stroke="#2563eb" stroke-width="4" fill="none" marker-end="url(#arrow)"/>

  <g class="pulse">
    <circle cx="440" cy="292" r="72" fill="url(#hub)" filter="url(#shadow)"/>
    <circle cx="440" cy="292" r="50" fill="none" stroke="#bfdbfe" stroke-width="2" stroke-dasharray="6 7"/>
    <text class="label" x="440" y="282" text-anchor="middle" font-size="17" font-weight="900" fill="#ffffff">OpenHire</text>
    <text class="label" x="440" y="306" text-anchor="middle" font-size="15" font-weight="700" fill="#dbeafe">control agent</text>
  </g>

  <path class="flow" d="M482 235 C540 166 596 130 662 122" stroke="#2563eb" stroke-width="3.5" fill="none" marker-end="url(#arrow)"/>
  <path class="flow" d="M509 270 C564 234 613 217 676 216" stroke="#2563eb" stroke-width="3.5" fill="none" marker-end="url(#arrow)"/>
  <path class="flow" d="M512 315 C570 344 622 356 682 352" stroke="#2563eb" stroke-width="3.5" fill="none" marker-end="url(#arrow)"/>
  <path class="flow" d="M482 350 C541 420 596 458 662 466" stroke="#2563eb" stroke-width="3.5" fill="none" marker-end="url(#arrow)"/>

  <g class="employee">
    <rect x="668" y="86" width="214" height="70" rx="15" fill="#ffffff" stroke="#93c5fd" stroke-width="1.6" filter="url(#shadow)"/>
    <text class="label" x="775" y="115" text-anchor="middle" font-size="17" font-weight="900" fill="#1d4ed8">Market Insight</text>
    <text class="label" x="775" y="137" text-anchor="middle" font-size="13" fill="#475569">signals, ICPs</text>
  </g>
  <g class="employee" style="animation-delay:.2s">
    <rect x="692" y="181" width="214" height="70" rx="15" fill="#ffffff" stroke="#93c5fd" stroke-width="1.6" filter="url(#shadow)"/>
    <text class="label" x="799" y="210" text-anchor="middle" font-size="17" font-weight="900" fill="#1d4ed8">Sales Ops</text>
    <text class="label" x="799" y="232" text-anchor="middle" font-size="13" fill="#475569">pipeline, plays</text>
  </g>
  <g class="employee" style="animation-delay:.4s">
    <rect x="700" y="276" width="214" height="70" rx="15" fill="#ffffff" stroke="#93c5fd" stroke-width="1.6" filter="url(#shadow)"/>
    <text class="label" x="807" y="305" text-anchor="middle" font-size="17" font-weight="900" fill="#1d4ed8">Finance Risk</text>
    <text class="label" x="807" y="327" text-anchor="middle" font-size="13" fill="#475569">forecast, cash</text>
  </g>
  <g class="employee" style="animation-delay:.6s">
    <rect x="668" y="430" width="214" height="70" rx="15" fill="#ffffff" stroke="#93c5fd" stroke-width="1.6" filter="url(#shadow)"/>
    <text class="label" x="775" y="459" text-anchor="middle" font-size="17" font-weight="900" fill="#1d4ed8">Legal + PMO</text>
    <text class="label" x="775" y="481" text-anchor="middle" font-size="13" fill="#475569">bounds, owners</text>
  </g>

  <path class="flow" d="M702 156 C634 246 619 340 694 430" stroke="#0f766e" stroke-width="4" fill="none" marker-end="url(#arrowTeal)"/>
  <path class="flow" d="M701 346 C632 383 570 392 516 343" stroke="#0f766e" stroke-width="4" fill="none" marker-end="url(#arrowTeal)"/>
  <text class="label" x="601" y="396" font-size="14" font-weight="800" fill="#0f766e">cross-check</text>

  <path class="flow" d="M440 364 C437 424 386 456 324 476" stroke="#0f766e" stroke-width="4" fill="none" marker-end="url(#arrowTeal)"/>
  <rect x="64" y="424" width="270" height="100" rx="18" fill="#ecfdf5" stroke="#99f6e4" stroke-width="1.8" filter="url(#shadow)"/>
  <text class="label" x="199" y="455" text-anchor="middle" font-size="14" font-weight="900" fill="#0f766e">AUDITED PACKAGE</text>
  <text class="label" x="199" y="486" text-anchor="middle" font-size="15" fill="#115e59">CEO brief · 90-day plan</text>
  <text class="label" x="199" y="510" text-anchor="middle" font-size="15" fill="#115e59">risk list · owners · logs</text>

  <rect x="316" y="540" width="328" height="36" rx="18" fill="#dbeafe" stroke="#93c5fd"/>
  <text class="label" x="480" y="563" text-anchor="middle" font-size="15" font-weight="800" fill="#1d4ed8">Scale roles. Own work. Audit runs.</text>
</svg>
